# Blender 4.0.2
# www.blender.org
mtllib IcosphereBig.mtl
o Icosphere
v 0.000000 -1.000000 0.000000
v 0.723607 -0.447220 0.525725
v -0.375494 -0.407988 0.794607
v -0.894426 -0.447216 0.000000
v -0.276388 -0.447220 -0.850649
v 0.634201 -0.416174 -0.603633
v 0.283037 0.277346 0.871107
v -0.723607 0.447220 0.525725
v -0.723607 0.447220 -0.525725
v 0.158752 0.546780 -0.774284
v 0.915882 0.277782 0.000000
v -0.162456 -0.850654 0.499995
v 0.425323 -0.850654 0.309011
v 0.262869 -0.525738 0.809012
v 0.850648 -0.525736 0.000000
v 0.425323 -0.850654 -0.309011
v -0.525730 -0.850652 0.000000
v -0.619213 -0.433955 0.589533
v -0.162456 -0.850654 -0.499995
v -0.688189 -0.525736 -0.499997
v 0.365560 -0.424764 -0.776502
v 0.938927 0.095799 0.125745
v 0.938927 0.095799 -0.125745
v 0.170992 0.096048 0.931653
v 0.409274 0.096048 0.854230
v -0.932943 0.094849 0.141761
v -0.545107 -0.137412 0.782329
v -0.587786 0.000000 -0.809017
v -0.932943 0.094849 -0.141761
v 0.584852 -0.138420 -0.753788
v 0.000000 0.000000 -1.000000
v 0.688189 0.525736 0.499997
v -0.262869 0.525738 0.809012
v -0.886879 0.336034 0.000000
v -0.062095 0.560826 -0.763536
v 0.688189 0.525736 -0.499997
v 0.162456 0.850654 0.499995
v 0.525730 0.850652 0.000000
v -0.425323 0.850654 0.309011
v -0.425323 0.850654 -0.309011
v 0.095546 0.704031 -0.631584
v 0.951058 0.000000 -0.309013
v 0.894426 0.447216 0.000000
v 0.951058 0.000000 0.309013
v -0.951058 0.000000 -0.309013
v -0.850648 0.525736 0.000000
v -0.951058 0.000000 0.309013
v 0.262869 -0.525738 -0.809012
v 0.723607 -0.447220 -0.525725
v 0.587786 0.000000 -0.809017
v -0.276388 -0.447220 0.850649
v -0.688189 -0.525736 0.499997
v -0.587786 0.000000 0.809017
v 0.079209 0.927183 -0.243783
v -0.207375 0.927183 -0.150665
v -0.207375 0.927183 0.150665
v 0.079209 0.927183 0.243783
v 0.256328 0.927183 0.000000
v 0.587786 0.000000 0.809017
v 0.276388 0.447220 0.850649
v -0.262869 0.525738 -0.809012
v 0.276388 0.447220 -0.850649
v 0.162456 0.850654 -0.499995
v 0.000000 0.000000 1.000000
vn 0.1024 -0.9435 0.3151
vn 0.7002 -0.6617 0.2680
vn -0.2680 -0.9435 0.1947
vn -0.2680 -0.9435 -0.1947
vn 0.1024 -0.9435 -0.3151
vn 0.9050 -0.3304 0.2680
vn 0.0247 -0.3304 0.9435
vn -0.8897 -0.3304 0.3151
vn -0.5746 -0.3304 -0.7488
vn -0.7242 -0.4452 -0.5267
vn 0.8026 -0.1256 0.5831
vn -0.3066 -0.1256 0.9435
vn -0.9921 -0.1256 -0.0000
vn -0.3066 -0.1256 -0.9435
vn 0.8026 -0.1256 -0.5831
vn 0.4089 0.6617 0.6284
vn -0.4713 0.6617 0.5831
vn -0.7002 0.6617 -0.2680
vn -0.8752 -0.4836 -0.0131
vn 0.7240 0.6617 -0.1947
vn 0.4911 0.7947 -0.3568
vn 0.4089 0.6617 -0.6284
vn 0.2680 0.9435 -0.1947
vn -0.1876 0.7947 -0.5773
vn -0.4713 0.6617 -0.5831
vn -0.1024 0.9435 -0.3151
vn -0.6071 0.7947 -0.0000
vn -0.7002 0.6617 0.2680
vn -0.3313 0.9435 -0.0000
vn -0.1876 0.7947 0.5773
vn 0.0385 0.6617 0.7488
vn -0.1024 0.9435 0.3151
vn 0.4911 0.7947 0.3568
vn 0.7240 0.6617 0.1947
vn 0.8897 0.3304 -0.3151
vn 0.7947 0.1876 -0.5773
vn 0.5746 0.3304 -0.7488
vn -0.0247 0.3304 -0.9435
vn -0.3035 0.1876 -0.9342
vn -0.5346 0.3304 -0.7779
vn -0.9050 0.3304 -0.2680
vn -0.9050 0.3304 0.2680
vn -0.5346 0.3304 0.7779
vn -0.3035 0.1876 0.9342
vn -0.0247 0.3304 0.9435
vn 0.5746 0.3304 0.7488
vn 0.7947 0.1876 0.5773
vn 0.8897 0.3304 0.3151
vn 0.3066 0.1256 -0.9435
vn 0.3035 -0.1876 -0.9342
vn 0.0247 -0.3304 -0.9435
vn -0.8026 0.1256 -0.5831
vn -0.7947 -0.1876 -0.5773
vn -0.8897 -0.3304 -0.3151
vn -0.8026 0.1256 0.5831
vn -0.7947 -0.1876 0.5773
vn -0.0441 0.9985 -0.0315
vn 0.0783 0.9640 0.2541
vn 0.3035 -0.1876 0.9342
vn 0.5346 -0.3304 0.7779
vn 0.9822 -0.1876 -0.0000
vn 0.9050 -0.3304 -0.2680
vn 0.4713 -0.6617 -0.5831
vn 0.1876 -0.7947 -0.5773
vn -0.0385 -0.6617 -0.7488
vn -0.4089 -0.6617 -0.6284
vn -0.4911 -0.7947 -0.3568
vn -0.7240 -0.6617 -0.1947
vn -0.7240 -0.6617 0.1947
vn -0.4911 -0.7947 0.3568
vn -0.4089 -0.6617 0.6284
vn 0.7002 -0.6617 -0.2680
vn 0.6071 -0.7947 -0.0000
vn 0.3313 -0.9435 -0.0000
vn -0.0385 -0.6617 0.7488
vn 0.1876 -0.7947 0.5773
vn 0.4713 -0.6617 0.5831
vn 0.9921 0.1256 -0.0000
vn -0.9822 0.1876 -0.0000
vn -0.0005 1.0000 -0.0000
vn -0.0120 -0.5338 0.8455
vn -0.0120 -0.5338 -0.8455
vn 0.5292 -0.3230 -0.7846
vn 0.5569 -0.3168 -0.7678
vn -0.5811 -0.3244 0.7464
vn -0.5623 -0.3195 0.7627
vn 0.5443 -0.3434 -0.7654
vn -0.5630 -0.3402 0.7532
vn 0.6862 -0.5297 0.4985
vn -0.0000 1.0000 -0.0000
vn 0.2680 0.9435 0.1947
vn 0.3066 0.1256 0.9435
vn 0.0288 0.6609 -0.7500
vn 0.0514 0.6688 -0.7417
vn 0.0527 0.6492 -0.7588
vn 0.7696 -0.5817 -0.2634
vt 0.181819 0.000000
vt 0.227273 0.078731
vt 0.136365 0.078731
vt 0.272728 0.157461
vt 0.318182 0.078731
vt 0.363637 0.157461
vt 0.909091 0.000000
vt 0.954545 0.078731
vt 0.863636 0.078731
vt 0.727273 0.000000
vt 0.772727 0.078731
vt 0.681818 0.078731
vt 0.545455 0.000000
vt 0.590909 0.078731
vt 0.500000 0.078731
vt 0.318182 0.236191
vt 0.090910 0.157461
vt 0.181819 0.157461
vt 0.136365 0.236191
vt 0.818182 0.157461
vt 0.909091 0.157461
vt 0.863636 0.236191
vt 0.636364 0.157461
vt 0.727273 0.157461
vt 0.681818 0.236191
vt 0.499212 0.213939
vt 0.472633 0.167904
vt 0.981913 0.167904
vt 0.955334 0.213939
vt 0.227273 0.236191
vt 0.045455 0.236191
vt 0.772727 0.236191
vt 0.590909 0.236191
vt 0.454546 0.157461
vt 0.500000 0.236191
vt 0.409092 0.236191
vt 0.181819 0.314921
vt 0.272728 0.314921
vt 0.227273 0.393651
vt 0.000000 0.314921
vt 0.090910 0.314921
vt 0.045455 0.393651
vt 0.727273 0.314921
vt 0.818182 0.314921
vt 0.772727 0.393651
vt 0.200246 0.253100
vt 0.181819 0.285016
vt 0.589780 0.361790
vt 0.571354 0.329874
vt 0.363637 0.314921
vt 0.454546 0.314921
vt 0.409092 0.393651
vt 0.500000 0.393651
vt 0.545455 0.314921
vt 0.476708 0.433995
vt 0.432384 0.433996
vt 0.590909 0.393651
vt 0.636364 0.314921
vt 0.681818 0.393651
vt 0.658526 0.433995
vt 0.614202 0.433995
vt 0.863636 0.393651
vt 0.909091 0.314921
vt 0.840344 0.433995
vt 0.796020 0.433995
vt 0.136365 0.393651
vt 0.113072 0.433995
vt 0.068747 0.433995
vt 0.318182 0.393651
vt 0.545455 0.157461
vt 0.954545 0.236191
vt 0.525790 0.167904
vt 0.928756 0.167904
vt 0.608207 0.329874
vt 0.163392 0.253100
vt 1.000000 0.157461
vt 0.409092 0.078731
vt 0.363637 0.000000
vt 0.363637 0.285093
vt 0.382134 0.253056
vt 0.345140 0.253056
vt 0.797329 0.250395
vt 0.818182 0.286513
vt 0.839034 0.250395
vt 0.294890 0.433996
vt 0.250566 0.433995
s 0
f 1/1/1 13/2/1 12/3/1
f 2/4/2 13/5/2 15/6/2
f 1/7/3 12/8/3 17/9/3
f 1/10/4 17/11/4 19/12/4
f 1/13/5 19/14/5 16/15/5
f 2/4/6 15/6/6 44/16/6
f 51/17/7 14/18/7 64/19/7
f 4/20/8 52/21/8 47/22/8
f 5/23/9 20/24/9 28/25/9
f 30/26/10 6/27/10 3/28/10 27/29/10
f 2/4/11 44/16/11 59/30/11
f 51/17/12 64/19/12 53/31/12
f 4/20/13 47/22/13 45/32/13
f 5/23/14 28/25/14 31/33/14
f 49/34/15 50/35/15 42/36/15
f 60/37/16 32/38/16 37/39/16
f 8/40/17 33/41/17 39/42/17
f 9/43/18 46/44/18 40/45/18
f 25/46/19 7/47/19 41/48/19 10/49/19
f 43/50/20 36/51/20 38/52/20
f 38/52/21 36/51/21 63/53/21
f 36/51/22 62/54/22 63/53/22
f 38/52/23 63/53/23 54/55/23 58/56/23
f 63/57/24 61/58/24 40/59/24
f 61/58/25 9/43/25 40/59/25
f 63/57/26 40/59/26 55/60/26 54/61/26
f 40/45/27 46/44/27 39/62/27
f 46/44/28 8/63/28 39/62/28
f 40/45/29 39/62/29 56/64/29 55/65/29
f 39/42/30 33/41/30 37/66/30
f 33/41/31 60/37/31 37/66/31
f 39/42/32 37/66/32 57/67/32 56/68/32
f 37/39/33 32/38/33 38/69/33
f 32/38/34 43/50/34 38/69/34
f 42/36/35 36/51/35 43/50/35
f 42/36/36 50/35/36 36/51/36
f 50/35/37 62/54/37 36/51/37
f 31/33/38 61/58/38 62/54/38
f 31/33/39 28/25/39 61/58/39
f 28/25/40 9/43/40 61/58/40
f 45/32/41 46/44/41 9/43/41
f 47/22/42 8/63/42 46/44/42
f 53/31/43 33/41/43 8/40/43
f 53/31/44 64/19/44 33/41/44
f 64/19/45 60/37/45 33/41/45
f 59/30/46 32/38/46 60/37/46
f 59/30/47 44/16/47 32/38/47
f 44/16/48 43/50/48 32/38/48
f 50/35/49 31/33/49 62/54/49
f 50/35/50 48/70/50 31/33/50
f 48/70/51 5/23/51 31/33/51
f 28/25/52 45/32/52 9/43/52
f 28/25/53 20/24/53 45/32/53
f 20/24/54 4/20/54 45/32/54
f 47/22/55 53/71/55 8/63/55
f 47/22/56 52/21/56 53/71/56
f 21/72/57 18/73/57 3/28/57 6/27/57
f 10/49/58 35/74/58 24/75/58 25/46/58
f 64/19/59 14/18/59 59/30/59
f 14/18/60 2/4/60 59/30/60
f 44/16/61 15/6/61 42/36/61
f 15/6/62 49/34/62 42/36/62
f 16/15/63 48/70/63 49/34/63
f 16/15/64 19/14/64 48/70/64
f 19/14/65 5/23/65 48/70/65
f 19/12/66 20/24/66 5/23/66
f 19/12/67 17/11/67 20/24/67
f 17/11/68 4/20/68 20/24/68
f 17/9/69 52/21/69 4/20/69
f 17/9/70 12/8/70 52/21/70
f 12/8/71 51/76/71 52/21/71
f 15/6/72 16/77/72 49/34/72
f 15/6/73 13/5/73 16/77/73
f 13/5/74 1/78/74 16/77/74
f 12/3/75 14/18/75 51/17/75
f 12/3/76 13/2/76 14/18/76
f 13/2/77 2/4/77 14/18/77
f 11/79/78 23/80/78 42/36/78 43/50/78
f 22/81/78 11/79/78 43/50/78 44/16/78
f 29/82/79 34/83/79 46/44/79 45/32/79
f 26/84/79 29/82/79 45/32/79 47/22/79
f 34/83/79 26/84/79 47/22/79 46/44/79
f 23/80/78 22/81/78 44/16/78 42/36/78
f 29/82/80 26/84/80 22/81/80 23/80/80
f 11/79/81 34/83/81 29/82/81 23/80/81
f 22/81/82 26/84/82 34/83/82 11/79/82
f 21/72/83 6/27/83 49/34/83 48/70/83
f 6/27/84 30/26/84 50/35/84 49/34/84
f 3/28/85 18/73/85 52/21/85 51/76/85
f 27/29/86 3/28/86 51/76/86 53/71/86
f 30/26/87 21/72/87 48/70/87 50/35/87
f 18/73/88 27/29/88 53/71/88 52/21/88
f 21/72/89 30/26/89 27/29/89 18/73/89
f 54/55/90 55/60/90 56/64/90 57/67/90 58/85/90
f 37/39/91 38/69/91 58/85/91 57/86/91
f 7/47/92 25/46/92 59/30/92 60/37/92
f 35/74/93 10/49/93 62/54/93 61/58/93
f 10/49/94 41/48/94 63/57/94 62/54/94
f 24/75/92 7/47/92 60/37/92 64/19/92
f 41/48/95 35/74/95 61/58/95 63/57/95
f 25/46/92 24/75/92 64/19/92 59/30/92
f 24/75/96 35/74/96 41/48/96 7/47/96
